<?xml version="1.0" encoding="UTF-8"?>
<svg id="Layer_2" data-name="Layer 2" xmlns="http://www.w3.org/2000/svg" viewBox="0 0 173 48.4998">
  <g id="Layer_1-2" data-name="Layer 1-2">
    <g id="Layer_2-2" data-name="Layer 2-2">
      <g id="Layer_1-2-2" data-name="Layer 1-2-2">
        <path d="M34.3756,29.3128h-.1438c-1.5821,0-3.0205.489-4.2286,1.3808v-1.1794h-3.8834v18.7843h3.8834v-9.6654c0-3.1068,1.7835-5.4368,4.1136-5.4656h.0863c.6616,0,1.352.1726,1.9561.489h0l.3452.1726,1.6397.7767v-4.2574l-.6616-.3164-.1438-.0575h0c-.9493-.4027-1.9273-.6329-2.9629-.6329h0v-.0288Z" fill="#fff"/>
        <path d="M67.4855,29.3128c-2.9342,0-5.4368.8918-7.2491,2.589-1.8123,1.726-2.7616,4.1136-2.7616,6.9614s.9493,5.2642,2.7616,7.019c1.7835,1.726,4.2862,2.6177,7.2203,2.6177s3.5958-.3452,5.0916-1.0356v.8342h3.8547v-18.7843h-3.8547v.8055c-1.4958-.6616-3.2218-1.0356-5.0629-1.0356h0v.0288ZM67.543,44.7027c-3.8547,0-6.156-2.1862-6.156-5.8395s2.3013-5.7532,6.1847-5.7532,3.7684.5753,5.0053,1.5821v8.4573c-1.2082,1.0068-2.9342,1.5246-5.0341,1.5246h0v.0288Z" fill="#fff"/>
        <path d="M98.0065,20.5391h-3.8547v9.8093c-1.4958-.6616-3.2506-1.0356-5.0629-1.0356-2.9342,0-5.4656.8918-7.2491,2.589-1.8123,1.726-2.7616,4.1136-2.7616,6.9614s.9493,5.2642,2.7616,7.019c1.7835,1.726,4.2862,2.6177,7.2203,2.6177s3.5958-.3452,5.1204-1.0356v.8342h3.8547v-27.7306h0l-.0288-.0288ZM89.1177,44.7027c-3.8547,0-6.156-2.1862-6.156-5.8395s2.3013-5.7532,6.1847-5.7532,3.7684.5753,5.0053,1.5821v8.4573c-1.2657,1.0068-3.0492,1.5534-5.0341,1.5534h0Z" fill="#fff"/>
        <path d="M104.1049,20.4528c-1.3808,0-2.4739,1.1219-2.4739,2.4739s1.1219,2.4739,2.4739,2.4739,2.4739-1.1219,2.4739-2.4739-1.1219-2.4739-2.4739-2.4739h0ZM106.0035,29.5141h-3.8834v18.7843h3.8834v-18.7843h0Z" fill="#fff"/>
        <path d="M127.0891,29.5141h-3.8834v13.5776c-1.3232.978-3.3081,1.5821-5.2067,1.5821-3.3081,0-4.4588-1.1794-4.4588-4.4875v-10.6723h-3.8547v10.6723c0,5.5806,2.704,8.3134,8.2559,8.3134s3.8259-.5178,5.2642-1.1794v.978h3.8834v-18.7843h0Z" fill="#fff"/>
        <path d="M151.8568,29.3128h0c-2.3013,0-4.5738.6616-6.5012,1.8986-1.2369-1.2369-3.0492-1.8986-5.4368-1.8986s-3.7971.5753-5.1491,1.2082v-1.0068h-3.8834v18.7843h3.8834v-13.6064c1.2082-.8055,2.8479-1.5821,5.0053-1.5821s3.7108.6904,3.7108,4.4012v10.7586h3.8547v-10.7586c0-1.0356-.0863-2.0712-.3164-3.078,1.4383-.863,3.0492-1.3232,4.7752-1.352,2.3876,0,3.7971.7192,3.7971,4.4012v10.7586h3.8547v-10.7586c0-5.5231-2.4451-8.2271-7.508-8.2271h-.0288l-.0576.0575Z" fill="#fff"/>
        <path d="M13.6352,24.5951h-2.6465l-.3164.6616L.7479,46.6588l-.7479,1.6397h4.2862l.3164-.6616,2.4164-5.293h10.6435l2.4164,5.293.3164.6616h4.2862l-.7479-1.6397-9.8668-21.2582-.0575-.1438-.3164-.6616h-.0575ZM8.7737,38.4604l3.5382-7.7669,3.567,7.7669s-7.1053,0-7.1053,0Z" fill="#fff"/>
        <path d="M44.3575,20.5391h-3.8547v27.7306h3.8547v-27.7306h0Z" fill="#fff"/>
        <path d="M58.2516,29.7155h-6.0984l-.3164.2877-8.4573,7.3641-.978.8342.9493.863,9.5216,8.6874.3164.2877h6.0697l-2.215-2.0136-8.6874-7.8532,7.5367-6.4436,2.3588-2.0136h0Z" fill="#fff"/>
      </g>
    </g>
    <path d="M167.2755,2.8766s.5753,0,1.1506.2877c1.6684.8055,1.726,2.0999,1.6972,4.3437v17.5761c0,1.0643-.489,2.8191-2.0712,2.8191-.4027,0-.7767-.0863-1.1219-.2589-1.1506-.4603-1.6109-2.215-2.0999-3.1355-.6329-1.2082-1.7835-3.4807-4.3725-4.7177-1.0931-.5178-2.3013-.8055-3.5382-.8055h-.0575c-.9493,0-1.8698.1151-2.7903.3452-.7479.1438-1.7835.5178-2.7328.5178h-.0575c-.3164,0-.6616-.0575-.9493-.2014-2.3301-1.0931-1.0356-3.193-.0575-3.9697l13.5777-10.8736c1.3232-1.0643,2.3013-1.8986,3.4519-1.8986M167.2755,0c-2.1575,0-3.7108,1.2657-5.2067,2.5314h-.0288c0,.0288-13.5489,10.9024-13.5489,10.9024-1.2082.9781-2.5602,2.9054-2.3013,5.0629.1151.9493.6329,2.704,2.9342,3.7684h.0288l.0288.0288c.6616.2877,1.3808.4315,2.0999.4315h.0863c1.0068,0,1.9273-.2301,2.6753-.4315.2301-.0575.4315-.1151.5753-.1438h.0575c.7192-.1726,1.4671-.2589,2.215-.2589h.0288c.7767,0,1.5821.1726,2.3013.5178,1.6684.8055,2.4451,2.3013,3.0205,3.3944v.0863c.1151.1151.2014.3452.2877.5753.489,1.1506,1.3232,3.1068,3.2794,3.9122.6904.2877,1.4383.4603,2.1862.489h.0575c2.8191,0,4.9478-2.4451,4.9478-5.6957V7.5367c0-2.2438.0575-5.3217-3.3081-6.9614-1.0931-.5178-2.1287-.5753-2.4164-.5753h0Z" fill="#fff"/>
  </g>
</svg>