<?xml version="1.0" encoding="UTF-8"?>
<svg id="Isolation_Mode" data-name="Isolation Mode" xmlns="http://www.w3.org/2000/svg" viewBox="0 0 50 47.9531">
  <path d="M49.5313,16.4193L25.5997.1844c-.3622-.2458-.8372-.2458-1.1994,0L.4687,16.4193c-.293.1988-.4687.53-.4687.8841v29.5813c0,.5901.4782,1.0684,1.0684,1.0684h16.9872c.5901,0,1.0684-.4783,1.0684-1.0684v-12.424c0-3.4186,2.6359-6.1999,5.8761-6.1999s5.8761,2.7813,5.8761,6.1999v12.424c0,.5901.4782,1.0684,1.0684,1.0684h16.9872c.5901,0,1.0684-.4783,1.0684-1.0684v-29.5813c0-.3541-.1757-.6853-.4687-.8841Z" fill="#fff"/>
</svg>