<?xml version="1.0" encoding="UTF-8"?>
<svg id="Isolation_Mode" data-name="Isolation Mode" xmlns="http://www.w3.org/2000/svg" viewBox="0 0 50 51.3174">
  <path d="M9.5567,2.9847c-.1158-1.1585-.134-2.4396,1.138-2.9257.0954-.0364.1954-.0545.2953-.0545.7996-.0023,9.9377-.0023,27.4145-.0046.4157,0,.7405.05.9722.1499.3248.1408.577.3521.7587.6337.3612.5588.2976,1.6355.1999,2.2783-.0068.0523.0318.0977.084.0977l5.7582.0114c.0159,0,.0295.0023.0454.0045,1.9194.4725,3.1233,1.6355,3.6117,3.4867.1976.7564.2181,1.6741.0613,2.7485-.3021,2.0443-.9767,3.9728-2.0239,5.7855-1.5968,2.7621-3.8524,4.7088-6.7713,5.8377-1.1789.4566-2.719.7814-4.6156.9699-.0613.0046-.1158.0454-.1408.1022-1.5151,3.5231-4.041,5.9467-7.5731,7.2756-.159.0613-.2499.2272-.2181.393.2408,1.1744.4861,2.2397.7337,3.196.5997,2.2965,1.7309,4.2658,3.3936,5.9036.1749.1704.4021.3452.6837.5224.084.0522.1794.084.2771.0931,1.6241.1386,2.7326.9313,3.3254,2.376.2521.6201.3612,1.5037.3271,2.6554-.025.8313-.0432,1.7354-.059,2.7099-.0023.1272.0999.2317.2271.2317h1.263c.2816,0,.5451.1431.6973.3816.7223,1.1244.6565,2.1556-.1976,3.0938-.2294.2499-.577.3748-1.0426.3748-17.1224-.0023-26.0403-.0023-26.7513.0045-.3521.0046-.6814-.1681-.8768-.4611-.6587-.979-.6837-2.0012-.075-3.062.0977-.1704.2749-.2817.4725-.2976l1.4924-.1136c.1204-.0091.2112-.1136.2022-.2362-.0568-.8064-.0704-2.0807-.0386-3.8229.0159-.7655.1227-1.3674.3225-1.8058.3271-.7224,1.0108-1.5878,1.8422-1.7331.4475-.0795.9472-.1863,1.5015-.3248.0886-.0227.1726-.0613.2453-.1113,1.2107-.8268,2.1761-1.9149,2.8961-3.2664.418-.7791.711-1.4129.8813-1.899.5247-1.5174.8722-3.0642,1.0426-4.6384.0136-.1136-.0681-.2158-.1817-.2317l-.343-.0454c-.0159-.0023-.0295-.0045-.0432-.0114-3.3141-1.4151-5.6492-3.8115-7.0007-7.1847-.0295-.0749-.1022-.1249-.184-.1272-5.89-.0568-10.5034-3.6344-12.5522-9.1245-.5156-1.3788-.8405-2.7212-.979-4.0251-.1386-1.2902-.0159-2.3396.368-3.1483.6996-1.4833,2.1216-2.5054,3.7979-2.4895,2.242.0227,3.9751.0159,5.1972-.0182.0818-.0023.1454-.0727.1386-.1545M11.458,17.4791c.075.0204.1408-.0522.1158-.1249-.2271-.6678-.4202-1.372-.5792-2.1148-.5497-2.5554-.9222-5.02-1.1176-7.3982-.0068-.0818-.0727-.1431-.1545-.1431h-4.8792c-.1681,0-.2998.1408-.2907.3066.1522,2.7008,1.0631,5.0041,2.7326,6.9144,1.1017,1.2584,2.4918,2.1125,4.1727,2.56M38.4046,17.4972c1.6945-.4339,3.1006-1.2788,4.2181-2.5327,1.6945-1.9035,2.6327-4.2113,2.8121-6.9212.0113-.1681-.1204-.3089-.2885-.3112l-4.9041-.0477c-.0795,0-.1477.0613-.1567.1431-.2181,2.3873-.6156,4.861-1.1925,7.4232-.1681.7428-.368,1.4492-.6019,2.1193-.0273.0727.0386.1454.1136.1272h0Z" fill="#fff"/>
</svg>