<?xml version="1.0" encoding="UTF-8"?>
<svg id="Isolation_Mode" data-name="Isolation Mode" xmlns="http://www.w3.org/2000/svg" viewBox="0 0 50 41.7374">
  <path d="M27.8249,0h-3.3594l-14.2441,11.2623v-.0944H0v19.0232h10.2214v-.0948l14.1964,11.6411h3.4071V0h0ZM44.0349,5.01c.5303.4734,1.0241.988,1.4812,1.538.4714.567.9019,1.167,1.2915,1.7941,1.1908,1.9166,2.0408,4.1349,2.563,6.482.5462,2.4562.7331,5.0533.5755,7.5928-.1586,2.5612-.6677,5.0783-1.5106,7.3519-.8107,2.1865-1.9329,4.1544-3.3524,5.7283-.3799.4212-.783.8163-1.2083,1.1815-.4168.3577-.8532.6854-1.3084.9785l-.3805.2452-1.7724-2.8507.3697-.2382c.3246-.2091.6364-.443.9336-.6988.3028-.2604.5943-.5466.8728-.8554,1.1404-1.2645,2.0469-2.8797,2.7075-4.697.6963-1.9164,1.1192-4.0555,1.2552-6.2464.1373-2.2172-.0206-4.4751-.4868-6.6-.4412-2.0108-1.1592-3.8997-2.1639-5.5167-.3128-.5035-.6544-.9812-1.0247-1.4276-.3618-.4366-.7465-.839-1.1527-1.2015l-.3341-.2983,2.3147-2.5563.3302.2949h0ZM36.8048,11.4703c.3279.2928.6333.6113.916.9511.2949.3545.5598.7227.7944,1.1007.7219,1.1618,1.2368,2.5046,1.5526,3.9242.3274,1.4718.4396,3.0242.3458,4.5378-.0951,1.5345-.4003,3.0432-.9054,4.4057v.0034c-.4927,1.3283-1.179,2.529-2.0511,3.496-.2334.259-.485.5051-.754.736-.2618.2248-.5358.4305-.8218.6149l-.761.4908-1.6905-2.7187.7398-.4766c.1622-.1046.3181-.2216.4666-.3493.1495-.1284.2972-.2742.4419-.4344.6001-.6653,1.0797-1.5222,1.4313-2.4902.3791-1.0436.6098-2.2119.6841-3.4105.0753-1.2153-.0114-2.4545-.2674-3.621-.2386-1.0871-.624-2.1038-1.1613-2.9686-.1639-.2638-.3438-.5151-.5391-.7506-.1929-.2327-.3918-.4418-.5952-.6233l-.668-.5966,2.1822-2.41.6601.5895h0Z" fill="#fff" fill-rule="evenodd"/>
</svg>